<svg width="28" height="28" viewBox="0 0 28 28" fill="none" xmlns="http://www.w3.org/2000/svg">
<g id="mail">
<path id="Vector" fill-rule="evenodd" clip-rule="evenodd" d="M8.72947 3.6665H19.2699C20.3719 3.66649 21.2608 3.66649 21.9802 3.72623C22.721 3.78775 23.3712 3.91776 23.9712 4.22944C24.8844 4.70381 25.629 5.44842 26.1034 6.36163C26.4151 6.96164 26.5451 7.61185 26.6066 8.35267C26.6664 9.07207 26.6664 9.96094 26.6663 11.063V16.9367C26.6664 18.0387 26.6664 18.9276 26.6066 19.647C26.5451 20.3878 26.4151 21.038 26.1034 21.638C25.629 22.5513 24.8844 23.2959 23.9712 23.7702C23.3712 24.0819 22.721 24.2119 21.9802 24.2734C21.2608 24.3332 20.3719 24.3332 19.2699 24.3332H8.72951C7.62745 24.3332 6.73858 24.3332 6.01917 24.2734C5.27836 24.2119 4.62814 24.0819 4.02814 23.7702C3.11492 23.2959 2.37032 22.5513 1.89594 21.638C1.58426 21.038 1.45425 20.3878 1.39273 19.647C1.33299 18.9276 1.333 18.0387 1.33301 16.9367V11.063C1.333 9.96093 1.33299 9.07206 1.39273 8.35267C1.45425 7.61185 1.58426 6.96164 1.89594 6.36163C2.37032 5.44842 3.11492 4.70381 4.02814 4.22944C4.62814 3.91776 5.27835 3.78775 6.01917 3.72623C6.73857 3.66649 7.62743 3.66649 8.72947 3.6665ZM4.95511 6.00166C6.33991 6.03703 7.66437 6.58526 8.66993 7.54294L12.4686 11.1608C12.8751 11.5478 13.1371 11.7963 13.352 11.97C13.5572 12.1359 13.6537 12.1779 13.7072 12.1942C13.8978 12.2525 14.1015 12.2525 14.2921 12.1942C14.3456 12.1779 14.4422 12.1359 14.6474 11.97C14.8622 11.7963 15.1243 11.5478 15.5307 11.1608L19.3294 7.54294C20.335 6.58526 21.6594 6.03703 23.0442 6.00166C22.7779 5.8644 22.4257 5.77011 21.8147 5.71937C21.1878 5.66731 20.3821 5.6665 19.2263 5.6665H8.77301C7.61724 5.6665 6.81157 5.66731 6.18469 5.71937C5.57364 5.77011 5.22146 5.8644 4.95511 6.00166ZM24.5502 7.99858C24.5335 7.99942 24.5166 7.99984 24.4997 7.99984H23.1872C22.2644 7.99984 21.377 8.35481 20.7087 8.99122L16.8824 12.6353C16.5114 12.9887 16.1904 13.2944 15.9048 13.5253C15.6024 13.7698 15.2756 13.9849 14.877 14.1068C14.3052 14.2817 13.6941 14.2817 13.1223 14.1068C12.7237 13.9849 12.397 13.7698 12.0946 13.5253C11.8089 13.2944 11.4879 12.9887 11.1169 12.6353L7.29062 8.99122C6.6224 8.35481 5.73497 7.99984 4.81218 7.99984H3.49968C3.48272 7.99984 3.46586 7.99942 3.44911 7.99858C3.42345 8.14841 3.40236 8.31963 3.38587 8.51819C3.33381 9.14506 3.33301 9.95074 3.33301 11.1065V16.8932C3.33301 18.0489 3.33381 18.8546 3.38587 19.4815C3.43694 20.0964 3.5321 20.4491 3.67077 20.7161C3.95539 21.264 4.40216 21.7108 4.95009 21.9954C5.21703 22.1341 5.56979 22.2292 6.18469 22.2803C6.81157 22.3324 7.61725 22.3332 8.77301 22.3332H19.2263C20.3821 22.3332 21.1878 22.3324 21.8147 22.2803C22.4296 22.2292 22.7823 22.1341 23.0493 21.9954C23.5972 21.7108 24.044 21.264 24.3286 20.7161C24.4673 20.4491 24.5624 20.0964 24.6135 19.4815C24.6655 18.8546 24.6663 18.0489 24.6663 16.8932V11.1065C24.6663 9.95074 24.6655 9.14506 24.6135 8.51819C24.597 8.31963 24.5759 8.14841 24.5502 7.99858Z" fill="#D5D8D8"/>
</g>
</svg>
