<svg width="101" height="100" viewBox="0 0 101 100" fill="none" xmlns="http://www.w3.org/2000/svg">
<g id="next-js 1" clip-path="url(#clip0_143_312)">
<path id="Vector" d="M47.2288 0.0781549C47.014 0.0976843 46.3305 0.166037 45.7153 0.21486C31.5272 1.49403 18.2375 9.14954 9.82038 20.916C5.13334 27.4583 2.13559 34.8794 1.00289 42.74C0.602534 45.4839 0.553711 46.2943 0.553711 50.0147C0.553711 53.735 0.602534 54.5455 1.00289 57.2894C3.71746 76.0473 17.0658 91.8075 35.1695 97.6468C38.4113 98.6916 41.829 99.4044 45.7153 99.834C47.2288 100 53.7712 100 55.2847 99.834C61.993 99.0919 67.6761 97.4319 73.281 94.5709C74.1403 94.1315 74.3063 94.0143 74.1891 93.9166C74.111 93.8581 70.4492 88.9464 66.0551 83.0095L58.0676 72.2196L48.0588 57.4065C42.5516 49.2628 38.0208 42.6033 37.9817 42.6033C37.9426 42.5935 37.9036 49.1749 37.884 57.2113C37.8548 71.2821 37.845 71.8485 37.6692 72.1805C37.4153 72.659 37.2201 72.8542 36.8099 73.0691C36.4975 73.2253 36.2241 73.2546 34.7496 73.2546H33.0603L32.6111 72.9714C32.3182 72.7859 32.1034 72.5418 31.9569 72.2586L31.7518 71.8192L31.7714 52.241L31.8007 32.6531L32.1034 32.2723C32.2596 32.0672 32.5916 31.8036 32.826 31.6766C33.2263 31.4813 33.3825 31.4618 35.0718 31.4618C37.0638 31.4618 37.3958 31.5399 37.9133 32.1063C38.0598 32.2625 43.4792 40.4258 49.9629 50.2588C56.4467 60.0918 65.313 73.5182 69.6681 80.1094L77.5774 92.0907L77.9778 91.827C81.5224 89.5225 85.272 86.2416 88.2405 82.824C94.5582 75.5688 98.6301 66.722 99.9971 57.2894C100.397 54.5455 100.446 53.735 100.446 50.0147C100.446 46.2943 100.397 45.4839 99.9971 42.74C97.2825 23.9821 83.9342 8.22189 65.8305 2.38262C62.6375 1.34756 59.2394 0.634741 55.4312 0.205096C54.4938 0.107449 48.0393 3.75658e-05 47.2288 0.0781549ZM67.6761 30.29C68.1448 30.5244 68.5256 30.9736 68.6623 31.4423C68.7404 31.6962 68.7599 37.1253 68.7404 49.3605L68.7111 66.9173L65.6157 62.1717L62.5106 57.4261V44.6636C62.5106 36.4125 62.5496 31.7743 62.6082 31.5497C62.7644 31.0029 63.1062 30.5732 63.5749 30.3193C63.9753 30.1143 64.1217 30.0948 65.6548 30.0948C67.0999 30.0948 67.3538 30.1143 67.6761 30.29Z" fill="black"/>
<path id="Vector_2" d="M77.0893 92.3054C76.7475 92.5202 76.6401 92.6667 76.9428 92.5007C77.1576 92.3738 77.5092 92.1101 77.4506 92.1003C77.4213 92.1003 77.2553 92.198 77.0893 92.3054ZM76.4155 92.7448C76.2398 92.8815 76.2398 92.8913 76.4546 92.7839C76.5718 92.7253 76.6694 92.6569 76.6694 92.6374C76.6694 92.5593 76.6206 92.5788 76.4155 92.7448ZM75.9273 93.0377C75.7515 93.1745 75.7515 93.1842 75.9664 93.0768C76.0835 93.0182 76.1812 92.9499 76.1812 92.9303C76.1812 92.8522 76.1324 92.8717 75.9273 93.0377ZM75.4391 93.3307C75.2633 93.4674 75.2633 93.4772 75.4781 93.3697C75.5953 93.3112 75.6929 93.2428 75.6929 93.2233C75.6929 93.1452 75.6441 93.1647 75.4391 93.3307ZM74.6969 93.7213C74.3259 93.9166 74.3454 93.9947 74.7165 93.8092C74.8825 93.7213 75.0094 93.6334 75.0094 93.6139C75.0094 93.5455 74.9996 93.5553 74.6969 93.7213Z" fill="black"/>
</g>
<defs>
<clipPath id="clip0_143_312">
<rect width="100" height="100" fill="white" transform="translate(0.5)"/>
</clipPath>
</defs>
</svg>
