<svg width="101" height="100" viewBox="0 0 101 100" fill="none" xmlns="http://www.w3.org/2000/svg">
<g id="postman-icon-svgrepo-com 1" clip-path="url(#clip0_144_490)">
<g id="Group">
<path id="Vector" d="M100.091 56.3489C103.59 28.9538 84.2439 3.90831 56.8988 0.408938C29.5538 -3.09043 4.40831 16.2561 0.908938 43.6012C-2.59043 70.9462 16.7561 96.0417 44.1012 99.5911C71.4962 103.09 96.5417 83.7439 100.091 56.3489Z" fill="#FF6C37"/>
<g id="Group_2">
<path id="Vector_2" d="M68.5466 32.1033L47.4504 53.1995L41.5015 47.2505C62.2477 26.5043 64.2974 28.3039 68.5466 32.1033Z" fill="white"/>
<path id="Vector_3" d="M47.4505 53.6994C47.3005 53.6994 47.2005 53.6494 47.1006 53.5494L41.1016 47.6005C40.9017 47.4005 40.9017 47.1005 41.1016 46.9006C62.1978 25.8044 64.3974 27.804 68.8466 31.8033C68.9466 31.9033 68.9966 32.0033 68.9966 32.1532C68.9966 32.3032 68.9466 32.4032 68.8466 32.5032L47.7504 53.5494C47.7004 53.6494 47.5505 53.6994 47.4505 53.6994ZM42.2014 47.2505L47.4505 52.4996L67.7968 32.1532C64.0975 28.8538 61.5979 27.854 42.2014 47.2505Z" fill="#FF6C37"/>
<path id="Vector_4" d="M53.4995 59.2484L47.7505 53.4994L68.8467 32.4032C74.4957 38.1022 66.0472 47.3505 53.4995 59.2484Z" fill="white"/>
<path id="Vector_5" d="M53.4997 59.7483C53.3497 59.7483 53.2497 59.6983 53.1497 59.5983L47.4008 53.8494C47.3008 53.7494 47.3008 53.6494 47.3008 53.4994C47.3008 53.3495 47.3508 53.2495 47.4508 53.1495L68.547 32.0533C68.7469 31.8533 69.0469 31.8533 69.2468 32.0533C70.5466 33.2531 71.2465 34.9528 71.1965 36.7025C71.0965 42.2515 64.7976 49.3002 53.8996 59.5983C53.7496 59.6983 53.5996 59.7483 53.4997 59.7483ZM48.4506 53.4994C51.65 56.7488 52.9998 58.0486 53.4997 58.5485C61.8982 50.55 70.0467 42.3514 70.0967 36.7025C70.1467 35.4027 69.6468 34.1029 68.7969 33.1031L48.4506 53.4994Z" fill="#FF6C37"/>
<path id="Vector_6" d="M41.6017 47.4006L45.851 51.6498C45.951 51.7498 45.951 51.8498 45.851 51.9497C45.801 51.9997 45.801 51.9997 45.751 51.9997L36.9526 53.8994C36.5027 53.9494 36.1027 53.6494 36.0028 53.1995C35.9528 52.9496 36.0527 52.6996 36.2027 52.5496L41.3018 47.4506C41.4018 47.3506 41.5517 47.3006 41.6017 47.4006Z" fill="white"/>
<path id="Vector_7" d="M36.8027 54.3992C36.0528 54.3992 35.5029 53.7994 35.5029 53.0495C35.5029 52.6995 35.6529 52.3496 35.9029 52.0997L41.0019 47.0006C41.3019 46.7506 41.7018 46.7506 42.0018 47.0006L46.251 51.2498C46.5509 51.4998 46.5509 51.9497 46.251 52.2496C46.151 52.3496 46.051 52.3996 45.9011 52.4496L37.1026 54.3493C37.0027 54.3493 36.9027 54.3992 36.8027 54.3992ZM41.4519 47.9504L36.5527 52.8495C36.4528 52.9495 36.4028 53.0995 36.5027 53.2495C36.5527 53.3994 36.7027 53.4494 36.8527 53.3994L45.1012 51.5997L41.4519 47.9504Z" fill="#FF6C37"/>
<path id="Vector_8" d="M79.6948 20.4054C76.4954 17.3059 71.3464 17.4059 68.2469 20.6553C65.1475 23.9047 65.2474 29.0038 68.4969 32.1032C71.1464 34.6528 75.1457 35.1027 78.2951 33.203L72.5961 27.5041L79.6948 20.4054Z" fill="white"/>
<path id="Vector_9" d="M74.0955 34.8528C69.3464 34.8528 65.4971 31.0035 65.4971 26.2543C65.4971 21.5052 69.3464 17.6559 74.0955 17.6559C76.2951 17.6559 78.4447 18.5057 80.0444 20.0555C80.1444 20.1554 80.1944 20.2554 80.1944 20.4054C80.1944 20.5554 80.1444 20.6553 80.0444 20.7553L73.2957 27.5041L78.5947 32.8032C78.7947 33.0031 78.7947 33.3031 78.5947 33.503C78.5447 33.553 78.5447 33.553 78.4947 33.603C77.195 34.4029 75.6452 34.8528 74.0955 34.8528ZM74.0955 18.7057C69.8963 18.7057 66.4969 22.1051 66.5469 26.3043C66.5469 30.5036 69.9463 33.903 74.1455 33.853C75.2953 33.853 76.4451 33.603 77.4949 33.0531L72.2459 27.854C72.1459 27.7541 72.0959 27.6541 72.0959 27.5041C72.0959 27.3541 72.1459 27.2542 72.2459 27.1542L78.9446 20.4554C77.5949 19.3056 75.8952 18.7057 74.0955 18.7057Z" fill="#FF6C37"/>
<path id="Vector_10" d="M79.8449 20.5553L79.7449 20.4553L72.5962 27.5041L78.2452 33.153C78.7951 32.8031 79.345 32.4032 79.7949 31.9532C82.9943 28.8038 82.9943 23.7047 79.8449 20.5553Z" fill="white"/>
<path id="Vector_11" d="M78.2951 33.703C78.1451 33.703 78.0451 33.653 77.9451 33.5531L72.2462 27.8541C72.1462 27.7541 72.0962 27.6541 72.0962 27.5041C72.0962 27.3542 72.1462 27.2542 72.2462 27.1542L79.3449 20.0555C79.5448 19.8555 79.8448 19.8555 80.0448 20.0555L80.1947 20.1555C83.5441 23.5049 83.5441 28.9039 80.2447 32.3033C79.7448 32.8032 79.1949 33.2531 78.595 33.603C78.445 33.653 78.3451 33.703 78.2951 33.703ZM73.296 27.5041L78.3451 32.5532C78.745 32.3033 79.1449 31.9533 79.4449 31.6534C82.2944 28.8039 82.4443 24.1548 79.6948 21.1553L73.296 27.5041Z" fill="#FF6C37"/>
<path id="Vector_12" d="M69.3965 33.0031C68.1967 31.8033 66.2471 31.8033 65.0473 33.0031L46.2007 51.8497L49.3501 54.9991L69.2965 37.5023C70.5963 36.4025 70.6963 34.4528 69.5965 33.1531C69.4965 33.1031 69.4465 33.0531 69.3965 33.0031Z" fill="white"/>
<path id="Vector_13" d="M49.3002 55.4991C49.1502 55.4991 49.0503 55.4491 48.9503 55.3491L45.8009 52.1997C45.6009 51.9997 45.6009 51.6998 45.8009 51.4998L64.6475 32.6532C66.0472 31.2535 68.2968 31.2535 69.6965 32.6532C71.0963 34.053 71.0963 36.3025 69.6965 37.7023C69.6466 37.7523 69.5966 37.8023 69.5466 37.8523L49.6002 55.3491C49.5502 55.4491 49.4502 55.4991 49.3002 55.4991ZM46.9007 51.8497L49.3502 54.2993L68.9467 37.1024C70.0465 36.2026 70.1465 34.5529 69.2466 33.4531C68.3468 32.3533 66.6971 32.2533 65.5973 33.1531C65.5473 33.2031 65.4973 33.2531 65.3973 33.3031L46.9007 51.8497Z" fill="#FF6C37"/>
<path id="Vector_14" d="M31.7533 73.2959C31.5533 73.3959 31.4533 73.5959 31.5033 73.7958L32.3532 77.3952C32.5531 77.8951 32.2532 78.495 31.7033 78.645C31.3034 78.7949 30.8535 78.6449 30.6035 78.345L25.1045 72.896L43.0513 54.9492L49.2501 55.0492L53.4494 59.2484C52.4496 60.0983 46.4007 65.9472 31.7533 73.2959Z" fill="white"/>
<path id="Vector_15" d="M31.3534 79.1448C30.9535 79.1448 30.5535 78.9948 30.3036 78.6949L24.8546 73.2458C24.7546 73.1458 24.7046 73.0459 24.7046 72.8959C24.7046 72.7459 24.7546 72.6459 24.8546 72.546L42.8013 54.5992C42.9013 54.4992 43.0513 54.4492 43.1513 54.4492L49.3501 54.5492C49.5001 54.5492 49.6001 54.5992 49.7001 54.6992L53.8993 58.8984C53.9993 58.9984 54.0493 59.1484 54.0493 59.2983C54.0493 59.4483 53.9993 59.5483 53.8493 59.6483L53.4994 59.9482C48.2004 64.5974 41.0017 69.2466 32.0533 73.6957L32.9031 77.2451C33.0531 77.895 32.7531 78.5949 32.1532 78.9448C31.8533 79.0948 31.6033 79.1448 31.3534 79.1448ZM25.8544 72.8959L31.0035 77.995C31.1534 78.2449 31.4534 78.3449 31.7033 78.1949C31.9533 78.045 32.0533 77.745 31.9033 77.4951L31.0534 73.8957C30.9535 73.4458 31.1534 73.0459 31.5534 72.8459C40.4018 68.3967 47.5505 63.7975 52.7995 59.2484L49.1002 55.549L43.3512 55.449L25.8544 72.8959Z" fill="#FF6C37"/>
<path id="Vector_16" d="M20.8553 77.1951L25.1545 72.8959L31.5534 79.2947L21.3552 78.5948C20.9053 78.5449 20.6053 78.1449 20.6553 77.695C20.6553 77.495 20.7053 77.2951 20.8553 77.1951Z" fill="white"/>
<path id="Vector_17" d="M31.5534 79.7447L21.3053 79.0449C20.5554 78.9949 20.0555 78.345 20.1055 77.5951C20.1555 77.2952 20.2555 76.9952 20.5054 76.7953L24.8046 72.496C25.0046 72.2961 25.3046 72.2961 25.5045 72.496L31.9034 78.8949C32.0533 79.0449 32.1033 79.2448 32.0033 79.4448C31.9034 79.6448 31.7534 79.7447 31.5534 79.7447ZM25.1546 73.5958L21.2053 77.5451C21.0553 77.6451 21.0553 77.8951 21.2053 77.995C21.2553 78.045 21.3053 78.095 21.4053 78.095L30.2537 78.6949L25.1546 73.5958Z" fill="#FF6C37"/>
<path id="Vector_18" d="M41.3017 57.2487C41.0017 57.2487 40.8018 56.9988 40.8018 56.7488C40.8018 56.5988 40.8517 56.4989 40.9517 56.3989L45.8009 51.5498C46.0008 51.3498 46.3008 51.3498 46.5007 51.5498L49.6502 54.6992C49.8001 54.8492 49.8501 54.9991 49.8001 55.1991C49.7501 55.3491 49.6002 55.499 49.4002 55.549L41.4017 57.2487C41.3517 57.2487 41.3017 57.2487 41.3017 57.2487ZM46.1508 52.5996L42.8514 55.899L48.2504 54.7492L46.1508 52.5996Z" fill="#FF6C37"/>
<path id="Vector_19" d="M49.2504 55.0491L43.7514 56.2489C43.3514 56.3489 42.9515 56.099 42.8515 55.699C42.8015 55.4491 42.8515 55.1991 43.0515 54.9992L46.1009 51.9497L49.2504 55.0491Z" fill="white"/>
<path id="Vector_20" d="M43.6511 56.7488C42.9513 56.7488 42.4014 56.1989 42.4014 55.499C42.4014 55.1491 42.5513 54.8492 42.7513 54.5992L45.8008 51.5498C46.0007 51.3498 46.3007 51.3498 46.5006 51.5498L49.6501 54.6992C49.8 54.8492 49.85 54.9991 49.8 55.1991C49.75 55.3491 49.6001 55.499 49.4001 55.549L43.9011 56.7488C43.8011 56.7488 43.7011 56.7488 43.6511 56.7488ZM46.1507 52.5996L43.4512 55.2991C43.3512 55.3991 43.3512 55.499 43.4012 55.599C43.4512 55.699 43.5512 55.749 43.7011 55.749L48.3003 54.7492L46.1507 52.5996Z" fill="#FF6C37"/>
<path id="Vector_21" d="M79.8947 25.3545C79.7947 25.0546 79.4447 24.9046 79.1448 25.0046C78.8448 25.1046 78.6949 25.4545 78.7949 25.7545C78.7949 25.8045 78.8448 25.8544 78.8448 25.9044C79.1448 26.5043 79.0448 27.2542 78.6449 27.8041C78.4449 28.0541 78.4949 28.404 78.6949 28.604C78.9448 28.8039 79.2948 28.7539 79.4947 28.504C80.2446 27.5541 80.3946 26.3544 79.8947 25.3545Z" fill="#FF6C37"/>
</g>
</g>
</g>
<defs>
<clipPath id="clip0_144_490">
<rect width="100" height="100" fill="white" transform="translate(0.5)"/>
</clipPath>
</defs>
</svg>
