<svg width="101" height="100" viewBox="0 0 101 100" fill="none" xmlns="http://www.w3.org/2000/svg">
<g id="logo-sass-svgrepo-com 1" clip-path="url(#clip0_143_315)">
<path id="Vector" d="M100.457 64.0762C100.17 61.748 98.99 59.7285 96.9412 58.0664C96.9157 58.0354 96.8876 58.0066 96.8572 57.9805L96.7537 57.9062L96.7205 57.8828L95.6326 57.1016L95.5955 57.0742L95.4568 56.9766C95.406 56.9469 95.3515 56.9239 95.2947 56.9082C91.8533 54.8594 86.1561 53.4238 77.4393 56.5C75.3592 53 75.1229 50.1953 76.5154 45.8984C76.7635 45.1504 76.533 44.6562 75.7908 44.3359C74.2986 43.7012 72.2557 44.0254 70.8064 44.4082C70.1307 44.584 69.7244 44.9668 69.5955 45.5469C68.6775 49.8437 66.0096 53.7695 63.4295 57.5586L63.2772 57.7812C61.6873 54.4102 62.0174 51.7988 63.1248 48.5273C63.3455 47.875 63.1717 47.4414 62.5604 47.1172C60.8533 46.2363 58.2928 46.8418 57.2732 47.1426C55.9803 47.5195 54.5936 51.0137 53.0447 55.1973C52.6541 56.25 52.3182 57.1504 52.117 57.5703C51.6385 58.5469 51.1815 59.6602 50.6971 60.8418C49.6033 63.5156 48.3709 66.5254 46.6092 68.416C45.9686 67 46.9764 64.7676 47.9549 62.6016C49.1131 60.041 50.2068 57.6211 48.9471 56.0762C48.7479 55.8319 48.5007 55.631 48.2209 55.4859C47.9411 55.3408 47.6345 55.2545 47.3201 55.2324C46.9099 55.2012 46.4981 55.2681 46.1189 55.4277C46.2498 54.3242 46.2557 53.4531 45.9334 52.4004C45.4725 50.8984 44.2752 50.0566 42.6268 50.1016C38.8729 50.2109 35.6971 53.0078 33.6912 55.3359C32.3553 56.8984 29.3943 58.0898 26.7947 59.1348C25.7674 59.5703 24.7908 59.9609 23.9764 60.3516C22.6775 59.2539 21.0272 58.1465 19.2889 56.9766C14.4061 53.6992 8.87286 49.9824 8.68145 44.9434C8.40801 37.5 16.8846 32.2207 24.283 28.4531C29.8904 25.6016 34.7654 23.7109 39.1873 22.6777C45.3982 21.2266 50.6443 21.5195 54.7772 23.5449C57.0389 24.6523 58.0975 27.0605 57.4256 29.5371C55.6678 35.9727 48.3846 40.3828 42.1561 42.3672C38.4041 43.5625 35.2107 44.0625 32.3904 43.8984C28.8553 43.6934 25.9686 41.9199 24.7342 41.1641C24.5364 41.029 24.3273 40.9114 24.1092 40.8125L24.0525 40.7988C23.9408 40.771 23.8235 40.7745 23.7136 40.809C23.6037 40.8434 23.5054 40.9075 23.4295 40.9941C23.1756 41.2969 23.2654 41.7754 23.3572 42.0176C24.5584 45.1562 27.0389 47.1387 30.7283 47.9102C31.9358 48.1519 33.1649 48.2691 34.3963 48.2598C43.0311 48.2598 54.0486 43.2812 58.0955 39.1816C60.8553 36.3887 62.865 33.5176 63.6971 28.5664C64.5662 23.3809 61.0506 19.7773 57.4686 18.1172C48.7635 14.0996 38.8768 15.6875 32.115 17.7266C24.2049 20.1113 16.0213 24.4473 9.66582 29.6269C1.82989 36.0078 -1.00214 41.9316 1.24395 47.2539C3.55059 52.709 9.17559 56.1211 14.615 59.4219C16.3729 60.4863 18.0447 61.5 19.5506 62.5469C19.0975 62.7676 18.6346 62.9922 18.1639 63.2168C13.5975 65.4297 8.41778 67.9199 5.54473 72.0352C3.45879 75.0332 3.06817 78.0176 4.38457 80.9062C5.0877 82.4434 6.3377 83.4863 8.07403 84.0059C8.97725 84.2617 9.91266 84.3861 10.8514 84.375C14.2322 84.375 17.9529 83.0078 19.9783 81.7441C23.5565 79.498 25.8748 76.4824 26.8709 72.7812C27.7576 69.4883 27.5447 66.2168 26.2557 63.2969L30.6404 61.0859C28.5252 68.1172 30.1463 72.3164 31.9275 74.6328C32.5838 75.4863 33.7674 76 35.0897 76.0234C36.4119 76.0469 37.6287 75.5488 38.3162 74.7012C39.617 73.0898 40.5779 71.2051 41.4627 69.3203C41.4158 70.5508 41.4744 71.7969 41.8943 72.8535C42.2713 73.8047 42.8924 74.4355 43.6932 74.6777C44.5447 74.9375 45.5428 74.7187 46.5037 74.0625C50.8338 71.0996 53.7947 63.9883 56.1736 58.2715C56.5115 57.459 56.8357 56.6777 57.1502 55.9473C57.7388 58.0535 58.5575 60.0886 59.5916 62.0156C59.8221 62.4336 59.8025 62.6172 59.49 62.9609C59.0193 63.4766 58.3631 64.0996 57.6678 64.7598C55.5623 66.7578 52.9412 69.2519 52.5897 71.4453C52.4529 72.3242 53.0584 73.125 53.9979 73.3066C56.824 73.8691 60.2283 73.0469 63.1072 71.1094C65.7244 69.3516 66.7088 66.9004 66.0369 63.8457C65.3865 60.9043 66.8709 57.2519 70.449 52.9824C71.035 55.4297 71.8162 57.4082 72.8943 59.1406L72.8651 59.1641C70.2596 61.4395 66.6893 64.5547 67.244 68.334C67.2905 68.6934 67.4114 69.0392 67.5991 69.3492C67.7867 69.6593 68.037 69.9268 68.3338 70.1348C68.651 70.3489 69.0091 70.4952 69.3855 70.5645C69.7619 70.6337 70.1486 70.6244 70.5213 70.5371C73.9334 69.8203 76.5018 68.3769 78.3689 66.1289C80.2361 63.8808 79.5545 61.3887 78.9256 59.4551C83.8084 58.1309 88.1561 58.1641 92.2264 59.5527C94.5115 60.334 96.1502 61.6172 97.0955 63.3887C98.285 65.6172 97.6424 67.6738 95.2811 69.1797C94.5564 69.6426 94.2068 69.9258 94.1854 70.2832C94.1806 70.3661 94.1958 70.449 94.2298 70.5248C94.2638 70.6006 94.3156 70.6671 94.3807 70.7187C94.6541 70.9433 95.4979 71.334 97.4061 70.1328C99.1639 69.0293 100.195 67.5273 100.459 65.6406C100.512 65.1204 100.511 64.5962 100.457 64.0762ZM22.3846 68.9707L22.365 69.2207C22.0604 72.0801 20.6072 74.5723 18.0389 76.6426C16.4256 77.9434 14.6736 78.7422 13.1072 78.8945C12.0135 79 11.2186 78.8516 10.7459 78.4512C10.3924 78.1523 10.2029 77.7051 10.16 77.084C9.83965 72.1074 17.6443 67.1621 22.0369 65.5352C22.3504 66.6517 22.468 67.814 22.3846 68.9707ZM42.3748 54.9355C41.6521 59.0547 39.5447 66.8301 36.2322 69.8476C36.074 69.9922 35.9412 70.043 35.8807 70.0293C35.8201 70.0156 35.7732 69.9434 35.7244 69.834C34.6189 67.2715 35.0272 62.9434 36.701 59.543C37.9881 56.9219 39.826 55.1855 41.8807 54.6601C41.966 54.6366 42.0539 54.6242 42.1424 54.623C42.2116 54.6182 42.2804 54.6368 42.3377 54.6758C42.3619 54.714 42.3777 54.7569 42.3841 54.8017C42.3905 54.8465 42.3873 54.8921 42.3748 54.9355ZM58.6815 69.9512C58.0584 70.6016 57.2049 70.5137 57.4061 70.2754L60.5779 66.9082C60.3221 68.0664 59.5662 69.0254 58.6815 69.9512ZM71.8397 67.0391C71.538 67.1877 71.2116 67.2797 70.8768 67.3105C70.7869 65.5391 72.5037 63.5449 74.1971 62.2148C74.6522 64.0625 73.7205 66.0156 71.8397 67.0391Z" fill="black"/>
</g>
<defs>
<clipPath id="clip0_143_315">
<rect width="100" height="100" fill="white" transform="translate(0.5)"/>
</clipPath>
</defs>
</svg>
