<svg width="34" height="34" viewBox="0 0 34 34" fill="none" xmlns="http://www.w3.org/2000/svg">
<path fill-rule="evenodd" clip-rule="evenodd" d="M17 0C26.3888 0 34 7.61116 34 17C34 26.3888 26.3888 34 17 34C7.61116 34 0 26.3888 0 17C0 7.61116 7.61116 0 17 0ZM8.02984 9.44587C9.82811 8.9786 16.9929 8.97859 16.9929 8.97859C16.9929 8.97859 24.1719 8.97861 25.9701 9.4742C26.9472 9.72908 27.7258 10.5077 27.9807 11.4848C28.4763 13.283 28.4622 17.0213 28.4622 17.0213C28.4622 17.0213 28.4621 20.7453 27.9807 22.5295C27.7258 23.5206 26.9472 24.2851 25.9701 24.5542C24.1719 25.0215 16.9929 25.0215 16.9929 25.0215C16.9929 25.0215 9.84227 25.0214 8.02984 24.54C7.05282 24.271 6.27414 23.4923 6.00511 22.5153C5.53784 20.7453 5.53783 17.0071 5.53783 17.0071C5.53783 17.0071 5.53784 13.283 6.00511 11.4848C6.27414 10.5077 7.06698 9.7149 8.02984 9.44587ZM20.6745 17.0071L14.7132 13.5664V20.4337L20.6745 17.0071Z" fill="#FEFAFA"/>
</svg>
