<svg xmlns="http://www.w3.org/2000/svg" width="101" height="100" fill="none">
  <g clip-path="url(#a)">
    <path fill="#222" d="M1.15 58.033v-11.13h13.896v-.65H1.151V36.1h14.774v-.65H.5v23.234h15.555v-.651H1.15Zm27.433-16.075-5.76 7.582-5.63-7.582h-.845l6.085 8.07-6.671 8.656h.781l6.28-8.168 6.314 8.168h.813l-6.703-8.656 6.117-8.07h-.78Zm3.32 22.453V53.998h.065c.39 1.519 1.16 2.739 2.31 3.66 1.15.923 2.614 1.384 4.393 1.384 1.15 0 2.17-.233 3.06-.7a6.509 6.509 0 0 0 2.228-1.904c.597-.802 1.052-1.735 1.367-2.798a11.75 11.75 0 0 0 .472-3.352c0-1.258-.163-2.419-.488-3.482-.326-1.063-.798-1.985-1.416-2.766a6.511 6.511 0 0 0-2.245-1.822c-.879-.434-1.871-.651-2.978-.651-.846 0-1.632.125-2.36.374A6.316 6.316 0 0 0 34.377 43a7.164 7.164 0 0 0-1.465 1.61 7.415 7.415 0 0 0-.943 2.035h-.066v-4.686h-.65V64.41h.65Zm6.768-5.988c-2.04 0-3.677-.7-4.914-2.098-1.236-1.4-1.854-3.412-1.854-6.037 0-1.085.151-2.115.455-3.091a8.005 8.005 0 0 1 1.318-2.571 6.33 6.33 0 0 1 2.131-1.757c.847-.434 1.801-.651 2.864-.651 1.085 0 2.034.217 2.848.65a5.772 5.772 0 0 1 2.017 1.774 8.253 8.253 0 0 1 1.204 2.571c.271.965.407 1.99.407 3.075 0 .976-.125 1.947-.374 2.913a8.327 8.327 0 0 1-1.156 2.603c-.52.77-1.187 1.4-2 1.887-.814.488-1.796.732-2.946.732Zm10.706.26v-9.469c0-.91.13-1.8.39-2.668a6.539 6.539 0 0 1 1.205-2.294 5.643 5.643 0 0 1 2.066-1.562c.836-.38 1.828-.537 2.978-.472v-.651c-.998-.022-1.871.087-2.62.325-.748.24-1.394.564-1.936.977a4.99 4.99 0 0 0-1.302 1.448 6.475 6.475 0 0 0-.716 1.773h-.065v-4.133h-.65v16.727h.65Zm7.452-8.232h13.993c.043-1.15-.07-2.256-.341-3.32a8.258 8.258 0 0 0-1.302-2.83 6.625 6.625 0 0 0-2.31-1.986c-.944-.498-2.067-.748-3.369-.748-.932 0-1.844.195-2.733.586-.89.39-1.67.96-2.343 1.708-.673.749-1.215 1.665-1.627 2.75-.412 1.085-.618 2.321-.618 3.71 0 1.236.14 2.392.422 3.465.283 1.074.716 2.007 1.302 2.799a5.871 5.871 0 0 0 2.262 1.838c.922.434 2.034.64 3.335.619 1.91 0 3.515-.537 4.817-1.611 1.301-1.074 2.071-2.587 2.31-4.54h-.65c-.283 1.845-1.004 3.227-2.165 4.15-1.16.922-2.62 1.383-4.377 1.383-1.193 0-2.202-.207-3.026-.619a5.482 5.482 0 0 1-2.018-1.692c-.52-.716-.905-1.556-1.155-2.522a13.574 13.574 0 0 1-.407-3.14Zm13.342-.651H56.83c.065-1.171.282-2.224.651-3.156.369-.933.852-1.73 1.448-2.392a6.052 6.052 0 0 1 2.083-1.514 6.292 6.292 0 0 1 2.554-.52c1.085 0 2.04.2 2.864.602.824.401 1.513.949 2.066 1.643.554.694.971 1.502 1.253 2.425.282.922.423 1.892.423 2.912Zm14.156-2.896h.65c0-1.866-.542-3.222-1.626-4.068-1.085-.846-2.56-1.269-4.426-1.269-1.041 0-1.92.13-2.636.39-.716.26-1.302.597-1.757 1.01-.456.412-.781.867-.976 1.366a3.928 3.928 0 0 0-.293 1.432c0 .911.162 1.638.488 2.18.325.542.835.965 1.53 1.27.477.216 1.019.411 1.626.585.608.174 1.313.358 2.116.553.716.174 1.42.347 2.115.52a7.635 7.635 0 0 1 1.838.7c.532.293.966.668 1.302 1.123.336.456.504 1.052.504 1.79 0 .716-.168 1.323-.504 1.822a4.066 4.066 0 0 1-1.285 1.22 5.72 5.72 0 0 1-1.741.684 8.685 8.685 0 0 1-1.871.211c-1.975 0-3.488-.439-4.54-1.317-1.052-.879-1.578-2.262-1.578-4.15h-.651c0 2.105.57 3.645 1.708 4.621 1.14.977 2.826 1.465 5.06 1.465.717 0 1.438-.082 2.165-.244A6.017 6.017 0 0 0 83.497 58a4.413 4.413 0 0 0 1.4-1.432c.357-.586.536-1.302.536-2.148 0-.803-.157-1.454-.472-1.953a3.958 3.958 0 0 0-1.236-1.236A6.564 6.564 0 0 0 82 50.467c-.64-.184-1.285-.363-1.936-.537a329.83 329.83 0 0 0-2.392-.618 14.525 14.525 0 0 1-1.903-.618 3.228 3.228 0 0 1-1.351-1.026c-.336-.444-.504-1.079-.504-1.903 0-.152.043-.423.13-.814.087-.39.293-.786.618-1.187.325-.402.824-.76 1.497-1.074.672-.315 1.594-.472 2.766-.472a8.65 8.65 0 0 1 2.197.26c.661.174 1.23.45 1.708.83.477.38.846.862 1.106 1.448.26.586.39 1.302.39 2.148Zm15.067 0h.65c0-1.866-.542-3.222-1.627-4.068-1.084-.846-2.56-1.269-4.425-1.269-1.042 0-1.92.13-2.636.39-.716.26-1.302.597-1.757 1.01-.456.412-.781.867-.977 1.366a3.926 3.926 0 0 0-.293 1.432c0 .911.163 1.638.489 2.18.325.542.835.965 1.53 1.27.476.216 1.019.411 1.626.585.608.174 1.313.358 2.115.553.716.174 1.421.347 2.115.52a7.634 7.634 0 0 1 1.84.7c.53.293.965.668 1.3 1.123.337.456.505 1.052.505 1.79 0 .716-.168 1.323-.504 1.822a4.064 4.064 0 0 1-1.286 1.22 5.72 5.72 0 0 1-1.74.684 8.685 8.685 0 0 1-1.872.211c-1.974 0-3.487-.439-4.54-1.317-1.051-.879-1.578-2.262-1.578-4.15h-.65c0 2.105.57 3.645 1.708 4.621 1.139.977 2.826 1.465 5.06 1.465.716 0 1.438-.082 2.164-.244A6.016 6.016 0 0 0 98.564 58a4.413 4.413 0 0 0 1.4-1.432c.357-.586.536-1.302.536-2.148 0-.803-.157-1.454-.472-1.953a3.956 3.956 0 0 0-1.236-1.236 6.56 6.56 0 0 0-1.725-.765c-.64-.184-1.285-.363-1.936-.537a332.54 332.54 0 0 0-2.392-.618 14.522 14.522 0 0 1-1.904-.618 3.228 3.228 0 0 1-1.35-1.026c-.337-.444-.505-1.079-.505-1.903 0-.152.044-.423.13-.814.087-.39.293-.786.619-1.187.325-.402.824-.76 1.497-1.074.672-.315 1.594-.472 2.766-.472.802 0 1.535.087 2.196.26.662.174 1.231.45 1.709.83.477.38.846.862 1.106 1.448.26.586.39 1.302.39 2.148Z"/>
  </g>
  <defs>
    <clipPath id="a">
      <path fill="#fff" d="M.5 0h100v100H.5z"/>
    </clipPath>
  </defs>
</svg>
