<svg xmlns="http://www.w3.org/2000/svg" width="101" height="100" fill="none">
  <g fill="#8CC84B">
    <path d="M54.164 7.184c-2.218-1.248-5.11-1.242-7.33 0C35.715 13.32 24.596 19.457 13.476 25.59c-2.165 1.138-3.624 3.462-3.6 5.874V68.54c-.016 2.46 1.518 4.805 3.738 5.928 3.194 1.7 6.298 3.571 9.55 5.158 3.756 1.846 8.456 2.254 12.258.329 3.087-1.596 4.458-5.144 4.454-8.405.025-12.236.004-24.472.01-36.707.073-.544-.335-1.126-.928-1.112-1.421-.023-2.844-.014-4.265-.004-.537-.05-1.061.395-1.02.935-.02 12.157.003 24.317-.012 36.476.03 1.682-1.105 3.298-2.726 3.866-3.744 1.313-14.429-5.625-14.429-5.625a1.054 1.054 0 0 1-.603-1.03c0-12.232.002-24.464 0-36.694-.053-.493.25-.937.703-1.138 11.082-6.1 22.159-12.215 33.241-18.319a1.2 1.2 0 0 1 1.306.002c11.082 6.102 22.16 12.211 33.244 18.312.455.2.746.652.7 1.143-.002 12.23.003 24.462-.004 36.693.033.433-.191.852-.595 1.042-10.979 6.067-22.083 11.938-32.962 18.181-.475.272-1.013.58-1.544.28-2.861-1.582-5.688-3.226-8.54-4.823-.31-.194-.704-.277-1.027-.06a38.553 38.553 0 0 1-3.95 1.8c-2.061.816-1.732 1.15.128 2.234 3.334 1.887 6.675 3.766 10.01 5.656 2.195 1.37 5.145 1.467 7.41.201 11.121-6.128 22.238-12.264 33.361-18.392 2.214-1.13 3.756-3.466 3.74-5.927V31.465c.022-2.363-1.381-4.645-3.48-5.8-11.158-6.167-22.32-12.32-33.48-18.481Z"/>
    <path d="M70.944 35.02c-4.365-2.336-9.558-2.46-14.408-2.155-3.504.347-7.19 1.313-9.742 3.825-2.618 2.525-3.188 6.603-1.945 9.9.892 2.328 3.135 3.843 5.455 4.644 2.988 1.055 6.127 1.382 9.267 1.708 2.864.297 5.728.595 8.48 1.446 1.125.373 2.434.943 2.779 2.166.318 1.449-.03 3.133-1.207 4.14-3.736 2.957-14.13 2.503-17.821.176-1.492-.991-2.136-2.747-2.397-4.42-.03-.52-.449-.999-1.015-.96a213.67 213.67 0 0 0-4.251-.001c-.495-.042-1.009.31-1.036.815-.291 7.661 6.745 11.001 13.347 11.737 3.771.359 7.626.338 11.34-.471 2.792-.636 5.591-1.806 7.513-3.956 2.37-2.614 2.836-6.505 1.773-9.76-.812-2.43-3.135-3.987-5.508-4.789-3.228-1.107-7.054-1.702-9.978-1.98-4.25-.405-9.3-.24-10.502-3.032-.48-1.462-.072-3.278 1.272-4.177 3.555-2.412 10.791-2.092 14.473-.29 1.69.846 2.67 2.585 3.075 4.34.075.516.421 1.054 1.018 1.032 1.408.028 2.815.007 4.223.01.483.033 1.012-.24 1.107-.735-.06-3.669-1.933-7.424-5.312-9.214Z"/>
  </g>
</svg>
