<svg width="28" height="28" viewBox="0 0 28 28" fill="none" xmlns="http://www.w3.org/2000/svg">
<g id="phone">
<path id="Vector" fill-rule="evenodd" clip-rule="evenodd" d="M9.90903 4.46366C9.1177 3.88033 8.53952 3.712 8.18375 3.78143C6.97308 4.0177 6.25229 4.49482 5.29911 5.44799C4.01069 6.73639 3.33516 7.74693 3.62186 9.28285C3.94366 11.0068 5.50083 13.586 9.69691 17.7821C13.8928 21.9779 16.4871 23.5509 18.2201 23.8793C19.034 24.0336 19.663 23.913 20.2265 23.6355C20.8215 23.3424 21.3849 22.8541 22.0162 22.1953C22.5749 21.6122 22.9235 21.1956 23.1699 20.7798C23.4067 20.3801 23.5721 19.9412 23.6982 19.2956C23.7677 18.9399 23.5994 18.3616 23.0159 17.5702C22.4658 16.824 21.6943 16.0883 20.9873 15.4922C20.4576 15.0455 19.6536 15.0293 19.0192 15.5042L17.2478 16.8302C15.7169 17.9762 13.577 17.8125 12.2253 16.4609L11.0181 15.2537C9.66646 13.902 9.5028 11.762 10.6488 10.2312L11.9748 8.4599C12.4497 7.82549 12.4334 7.02144 11.9867 6.49171C11.3906 5.78489 10.6551 5.01361 9.90903 4.46366ZM11.0958 2.85379C12.0248 3.53868 12.8773 4.44541 13.5156 5.20239C14.63 6.52384 14.5431 8.36638 13.5759 9.65847L12.2498 11.4298C11.7057 12.1567 11.7772 13.1843 12.4323 13.8395L13.6395 15.0467C14.2947 15.7018 15.3223 15.7733 16.0492 15.2292L17.8206 13.9031C19.1126 12.9359 20.9551 12.849 22.2765 13.9632C23.0337 14.6016 23.9407 15.4541 24.6257 16.3834C25.2773 17.2673 25.9008 18.4516 25.6611 19.6791C25.5008 20.4993 25.2671 21.1638 24.8906 21.7993C24.5236 22.4186 24.0447 22.969 23.4603 23.579C22.7842 24.2845 22.0256 24.9788 21.1102 25.4296C20.1634 25.896 19.0939 26.0806 17.8476 25.8443C15.4603 25.3919 12.4878 23.4014 8.2827 19.1963C4.07782 14.9914 2.10048 12.032 1.65582 9.64984C1.17605 7.07966 2.5021 5.41655 3.88491 4.03376C5.01856 2.90013 6.07943 2.15437 7.80067 1.81846C9.02786 1.57897 10.212 2.20229 11.0958 2.85379Z" fill="#D5D8D8"/>
</g>
</svg>
