<svg width="101" height="100" viewBox="0 0 101 100" fill="none" xmlns="http://www.w3.org/2000/svg">
<g id="pugjs_logo_icon_170825 1" clip-path="url(#clip0_144_317)">
<g id="Group">
<path id="Vector" d="M84.1781 38.4401C84.022 35.006 84.4903 31.962 82.9293 29.3864C79.183 22.9864 69.817 19.24 51.0852 19.24C32.3533 19.24 22.5191 22.9864 18.7728 29.4645C17.2898 32.1181 17.4459 35.084 17.2118 38.5182C17.0557 41.2499 15.8069 44.1377 16.3532 47.2597C16.9776 51.3183 17.2118 55.3769 17.8362 59.1232C18.3045 62.1672 22.5191 64.7428 22.9094 67.6306C24.0021 75.5916 32.2753 79.26 51.0071 79.26V79.8844H50.6169H51.0852V79.26C69.817 79.26 77.7781 75.5916 78.7927 67.6306C79.183 64.6647 83.0854 62.1672 83.5537 59.1232C84.1781 55.3769 84.4123 51.3183 85.0367 47.2597C85.583 44.1377 84.3342 41.1719 84.1781 38.4401Z" fill="#EFCCA3"/>
<g id="Group_2">
<path id="Vector_2" d="M50.7733 41.2499C54.1294 41.3279 56.4709 43.4353 58.6563 45.3865C61.2319 47.6499 65.6027 49.2109 67.3978 51.1621C69.1929 53.1134 71.5344 55.0646 72.393 58.1085C73.2515 61.1525 73.4857 65.0549 73.4857 66.0696C73.4857 67.0842 74.032 66.8501 75.593 66.0696C79.2613 64.2744 83.3199 59.4354 83.3199 59.4354C82.8516 62.4793 78.8711 65.211 78.4808 68.0989C77.5442 76.0599 69.8173 79.8843 50.6952 79.8843H50.6172H51.0855" fill="#CCAC8D"/>
<path id="Vector_3" d="M63.1049 35.1621C63.8073 37.5816 66.3049 45.7768 61.4658 43.045C61.4658 43.045 63.4951 44.2158 64.7439 48.6646C66.0707 53.1134 69.2708 53.6598 69.2708 53.6598C69.2708 53.6598 74.5001 54.6744 78.4025 51.3183C81.6806 48.5085 82.227 43.5133 80.8221 39.6889C79.4172 35.9425 76.9196 34.7718 73.2513 33.9913C69.583 33.1328 62.2463 32.4303 63.1049 35.1621Z" fill="#CCAC8D"/>
</g>
<path id="Vector_4" d="M72.3928 50.9281C76.186 50.9281 79.2611 47.853 79.2611 44.0598C79.2611 40.2665 76.186 37.1914 72.3928 37.1914C68.5995 37.1914 65.5244 40.2665 65.5244 44.0598C65.5244 47.853 68.5995 50.9281 72.3928 50.9281Z" fill="black"/>
<path id="Vector_5" d="M70.5979 42.8109C71.5893 42.8109 72.393 42.0071 72.393 41.0157C72.393 40.0243 71.5893 39.2206 70.5979 39.2206C69.6064 39.2206 68.8027 40.0243 68.8027 41.0157C68.8027 42.0071 69.6064 42.8109 70.5979 42.8109Z" fill="white"/>
<path id="Vector_6" d="M61.9341 43.7474C61.9341 43.7474 68.1 47.9621 71.4561 52.0987C74.8122 56.2353 74.7342 57.0158 74.7342 57.0158L72.3146 58.1085C72.3146 58.1085 68.8805 51.6304 64.6658 49.2109C60.3731 46.7914 59.9048 44.7621 59.9048 44.7621L61.9341 43.7474Z" fill="#EFCCA3"/>
<path id="Vector_7" d="M51.0075 41.2499C47.6514 41.3279 45.1538 43.4353 42.8903 45.3865C40.3147 47.6499 35.7879 49.2109 33.9927 51.1621C32.1976 53.1134 29.7781 55.0646 28.9195 58.1085C28.061 61.1525 27.7488 65.0549 27.7488 66.0696C27.7488 67.0842 27.9049 67.1623 25.6414 66.0696C21.9731 64.3525 17.9146 59.4354 17.9146 59.4354C18.3828 62.4793 22.3634 65.211 22.7536 68.0989C23.8463 76.0599 31.5732 79.8843 50.6953 79.8843H51.0855" fill="#CCAC8D"/>
<path id="Vector_8" d="M69.1148 54.4402C65.3684 49.8353 59.3586 45.5426 51.0073 45.5426H50.9293C42.578 45.5426 36.5682 49.8353 32.8218 54.4402C28.9193 59.2012 29.2315 61.0744 29.2315 65.6013C29.2315 81.9917 35.0072 77.3087 38.8316 79.338C42.7341 81.2892 46.7926 80.6648 50.9293 80.6648H51.0073C55.222 80.6648 59.2025 81.2112 63.105 79.2599C66.9294 77.3087 72.705 82.1478 72.705 65.7574C72.7831 61.2305 73.0172 59.2012 69.1148 54.4402Z" fill="#56332B"/>
<g id="Group_3">
<path id="Vector_9" d="M50.6171 49.6012C50.6171 49.6012 50.0707 57.172 48.978 58.6549L51.0073 58.1866L50.6171 49.6012Z" fill="#442823"/>
<path id="Vector_10" d="M51.1632 49.6012C51.1632 49.6012 51.7095 57.172 52.8022 58.6549L50.7729 58.1866L51.1632 49.6012Z" fill="#442823"/>
</g>
<path id="Vector_11" d="M44.6074 47.8061C43.8269 46.0109 46.6367 43.1231 51.0855 43.045C55.5343 43.045 58.3441 45.9329 57.5636 47.8061C56.7831 49.6792 53.9733 50.2256 51.0855 50.3036C48.2757 50.2256 45.3879 49.6792 44.6074 47.8061Z" fill="#56332B"/>
<path id="Vector_12" d="M51.0852 49.6012C51.0852 49.289 53.7389 49.2109 55.1438 48.2743C55.1438 48.2743 52.256 49.2109 51.6316 48.8207C51.0072 48.5085 50.8511 47.5719 50.8511 47.5719C50.8511 47.5719 50.6169 48.5085 50.1486 48.8207C49.6023 49.1329 46.3242 48.2743 46.3242 48.2743L50.695 49.6012C50.695 49.8353 50.6169 50.6158 50.6169 51.1622L50.9291 58.3427C51.3974 59.0452 51.2413 53.1134 51.2413 51.1622L51.0852 49.6012Z" fill="black"/>
<path id="Vector_13" d="M51.2413 60.0598C52.5681 60.0598 54.9096 60.9964 57.0169 62.4793C54.9876 60.2159 52.5681 58.6549 51.2413 58.6549C49.8364 58.6549 46.8705 60.372 44.7632 62.8696C46.9486 61.1525 49.7583 60.0598 51.2413 60.0598Z" fill="#7F4A41" stroke="#4D4D4D" stroke-width="2.07749" stroke-miterlimit="10"/>
<g id="Group_4">
<path id="Vector_14" d="M50.695 73.8745C47.7291 73.8745 44.8413 72.9379 42.1876 72.2355C41.6413 72.0794 41.0949 72.4696 40.5486 72.3135C35.6315 70.7525 31.651 68.0989 29.2314 64.7427V65.5232C29.2314 81.9136 35.0071 77.3087 38.8315 79.2599C42.734 81.2112 46.7926 80.5868 50.9292 80.5868H51.0072C55.2219 80.5868 59.2024 81.1331 63.1049 79.1819C66.9293 77.2306 72.7049 81.9917 72.7049 65.6013C72.7049 64.9769 72.7049 64.3525 72.783 63.8062C70.5196 67.4745 66.3829 70.3623 61.2317 72.0794C60.7634 72.2355 59.6707 71.8452 59.2024 71.9233C56.3926 72.8599 53.895 73.8745 50.695 73.8745Z" fill="#442823"/>
<path id="Vector_15" d="M43.2804 65.0549C43.2804 65.0549 41.3291 70.9086 42.656 73.4843L40.8608 72.7038C40.8608 72.7038 42.1877 66.772 43.2804 65.0549ZM58.7341 65.0549C58.7341 65.0549 60.6854 70.9086 59.3585 73.4843L61.1537 72.7038C61.1537 72.7038 59.7488 66.772 58.7341 65.0549Z" fill="#442823"/>
</g>
<path id="Vector_16" d="M38.2852 35.1621C37.5827 37.5816 35.0851 45.7768 39.9242 43.045C39.9242 43.045 37.8949 44.2158 36.6461 48.6646C35.3973 53.1134 32.1193 53.6598 32.1193 53.6598C32.1193 53.6598 26.89 54.6744 22.9875 51.3183C19.7094 48.5085 19.1631 43.5133 20.568 39.6889C21.9728 35.8645 24.4704 34.7718 28.1387 33.9913C31.8071 33.1328 39.0657 32.4303 38.2852 35.1621Z" fill="#CCAC8D"/>
<path id="Vector_17" d="M51.0072 58.6549C53.1145 58.6549 59.6706 63.1818 59.7487 68.7233V68.4111C59.7487 62.6354 54.4413 58.0305 51.0072 58.0305C47.573 58.0305 42.2656 62.7135 42.2656 68.4111V68.7233C42.3437 63.1818 48.8998 58.6549 51.0072 58.6549Z" fill="black"/>
<g id="Group_5">
<path id="Vector_18" d="M52.7112 47.8485C53.0452 47.7624 53.185 47.1851 53.0235 46.559C52.8621 45.9329 52.4605 45.4952 52.1266 45.5813C51.7927 45.6674 51.6529 46.2447 51.8143 46.8708C51.9758 47.4969 52.3773 47.9346 52.7112 47.8485Z" fill="#331712"/>
<path id="Vector_19" d="M48.6995 47.8369C49.0288 47.9391 49.4511 47.5213 49.6427 46.9037C49.8343 46.2862 49.7226 45.7027 49.3932 45.6005C49.0639 45.4984 48.6416 45.9162 48.45 46.5337C48.2584 47.1513 48.3701 47.7347 48.6995 47.8369Z" fill="#331712"/>
</g>
<path id="Vector_20" d="M29.3874 50.9281C33.1807 50.9281 36.2557 47.853 36.2557 44.0598C36.2557 40.2665 33.1807 37.1914 29.3874 37.1914C25.5941 37.1914 22.519 40.2665 22.519 44.0598C22.519 47.853 25.5941 50.9281 29.3874 50.9281Z" fill="black"/>
<path id="Vector_21" d="M31.1828 42.8109C32.1743 42.8109 32.978 42.0071 32.978 41.0157C32.978 40.0243 32.1743 39.2206 31.1828 39.2206C30.1914 39.2206 29.3877 40.0243 29.3877 41.0157C29.3877 42.0071 30.1914 42.8109 31.1828 42.8109Z" fill="white"/>
<path id="Vector_22" d="M53.0366 44.1377C53.0366 44.0597 51.2415 44.9182 50.7732 44.9962C50.3049 44.9182 48.5098 44.0597 48.5098 44.1377H53.0366Z" fill="#7F4A41" stroke="#4D4D4D" stroke-width="2.07749" stroke-miterlimit="10"/>
<path id="Vector_23" d="M39.3779 43.7474C39.3779 43.7474 33.212 47.9621 29.8559 52.0987C26.4997 56.2353 26.5778 57.0158 26.5778 57.0158L28.9973 58.1085C28.9973 58.1085 32.4315 51.6304 36.6462 49.2109C40.8608 46.7914 41.4072 44.7621 41.4072 44.7621L39.3779 43.7474Z" fill="#EFCCA3"/>
<g id="Group_6">
<path id="Vector_24" d="M25.8753 31.2596C25.8753 31.2596 23.7679 37.0352 19.085 39.4547C19.085 39.4547 26.4216 38.5962 25.8753 31.2596ZM75.1244 31.2596C75.1244 31.2596 77.2317 37.0352 81.9147 39.4547C81.9147 39.4547 74.5781 38.5962 75.1244 31.2596ZM61.778 42.0304C61.778 42.0304 57.1731 37.1913 51.0072 37.0352C50.9291 37.0352 51.1633 37.0352 51.0852 37.0352C51.0072 37.0352 51.1633 37.0352 51.1633 37.0352C44.9193 37.1913 40.3924 42.0304 40.3924 42.0304C45.7778 38.284 50.3828 38.3621 51.1633 38.3621C51.0852 38.3621 56.3926 38.284 61.778 42.0304ZM56.3926 31.884C56.3926 31.884 54.0511 28.6059 50.9291 28.5278H51.0852C48.7437 28.6059 45.6998 31.884 45.6998 31.884C48.3535 29.3083 51.0852 29.3864 51.0852 29.3864C51.0852 29.3864 53.6608 29.3083 56.3926 31.884ZM29.3875 55.8451C29.3875 55.8451 25.7192 57.6402 23.0655 56.5476H22.9874C20.6459 55.2207 19.4752 51.2402 19.4752 51.2402C19.4752 51.2402 21.8167 58.2646 29.3875 55.8451ZM72.1585 55.8451C72.1585 55.8451 75.8269 57.6402 78.4805 56.5476C81.6025 55.2207 82.0708 51.2402 82.0708 51.2402C82.0708 51.2402 79.7293 58.2646 72.1585 55.8451ZM33.6021 30.8693C35.6314 30.4791 38.9876 30.401 41.6412 31.2596C44.9974 32.4303 42.2656 36.723 42.9681 36.9572C43.6705 37.1913 44.6071 33.9913 50.8511 34.3035C57.1731 34.6157 57.8755 37.4255 58.734 36.9572C59.5926 36.4889 57.8755 29.1522 67.3195 30.8693C67.3195 30.8693 57.4072 28.2156 57.8755 35.3962C57.8755 35.3962 52.1779 31.0254 44.2169 34.9279C44.2949 34.9279 46.3242 28.2156 33.6021 30.8693ZM68.178 30.8693C68.3341 30.8693 68.4122 30.9474 68.4902 30.9474C68.5683 30.9474 68.4122 30.8693 68.178 30.8693Z" fill="#CCAC8D"/>
<path id="Vector_25" d="M30.8704 21.2693C30.8704 21.2693 22.4411 31.884 21.1923 35.9426C19.9435 40.0792 19.0069 57.0159 17.9142 59.4354L14.0117 42.7329L21.1923 25.3279L30.8704 21.2693ZM70.5195 21.2693C70.5195 21.2693 78.9488 31.884 80.1976 35.9426C81.4464 40.0792 82.383 57.0159 83.4757 59.4354L87.3781 42.7329L80.1976 25.3279L70.5195 21.2693Z" fill="#CCAC8D"/>
</g>
<path id="Vector_26" d="M70.1292 21.2692C70.1292 21.2692 79.1829 28.84 81.8366 37.5816C84.4903 46.3231 83.3976 56.9378 85.4269 58.2646C88.3147 60.1378 91.5928 48.9768 92.6855 47.806C94.4026 45.9328 100.1 41.1718 100.49 40.3133C100.881 39.4547 88.9391 26.4205 83.7098 23.8449C77.3878 20.879 69.5829 20.6448 70.1292 21.2692Z" fill="#56332B"/>
<path id="Vector_27" d="M77.8564 25.9523C77.8564 25.9523 88.5492 39.6109 88.3931 56.6257L92.6858 47.8841C92.6078 47.8841 88.8614 36.7231 77.8564 25.9523Z" fill="#442823"/>
<path id="Vector_28" d="M30.8705 21.2692C30.8705 21.2692 21.8168 28.84 19.1631 37.5816C16.5095 46.3231 17.6022 56.9378 15.5729 58.2646C12.685 60.1378 9.40697 48.9768 8.31428 47.806C6.59719 45.9328 0.899586 41.1718 0.509339 40.3133C0.119092 39.4547 12.0606 26.4205 17.29 23.8449C23.612 20.879 31.4169 20.6448 30.8705 21.2692Z" fill="#56332B"/>
<path id="Vector_29" d="M23.1434 25.9523C23.1434 25.9523 12.4507 39.6109 12.6068 56.6257L8.39209 47.8841C8.39209 47.8841 12.1385 36.7231 23.1434 25.9523Z" fill="#442823"/>
<path id="Vector_30" d="M17.3682 56.9378C17.3682 56.9378 18.1487 61.1525 19.3974 62.4793C20.6462 63.8062 19.7877 61.4647 19.7877 61.4647C19.7877 61.4647 18.4609 60.7622 18.695 55.3768C18.9292 49.9914 17.3682 56.9378 17.3682 56.9378ZM83.9443 56.9378C83.9443 56.9378 83.1638 61.1525 81.915 62.4793C80.6662 63.8062 81.5247 61.4647 81.5247 61.4647C81.5247 61.4647 82.8516 60.7622 82.6174 55.3768C82.3833 49.9914 83.9443 56.9378 83.9443 56.9378Z" fill="#CCAC8D"/>
<g id="Group_7">
<path id="Vector_31" d="M42.8905 54.3622C43.2354 54.3622 43.5149 54.0826 43.5149 53.7378C43.5149 53.393 43.2354 53.1134 42.8905 53.1134C42.5457 53.1134 42.2661 53.393 42.2661 53.7378C42.2661 54.0826 42.5457 54.3622 42.8905 54.3622Z" fill="#442823"/>
<path id="Vector_32" d="M39.3002 58.1085C39.645 58.1085 39.9246 57.829 39.9246 57.4841C39.9246 57.1393 39.645 56.8597 39.3002 56.8597C38.9553 56.8597 38.6758 57.1393 38.6758 57.4841C38.6758 57.829 38.9553 58.1085 39.3002 58.1085Z" fill="#442823"/>
<path id="Vector_33" d="M38.1293 54.3622C38.4741 54.3622 38.7537 54.0826 38.7537 53.7378C38.7537 53.393 38.4741 53.1134 38.1293 53.1134C37.7844 53.1134 37.5049 53.393 37.5049 53.7378C37.5049 54.0826 37.7844 54.3622 38.1293 54.3622Z" fill="#442823"/>
<path id="Vector_34" d="M58.1097 54.3622C58.4546 54.3622 58.7341 54.0826 58.7341 53.7378C58.7341 53.393 58.4546 53.1134 58.1097 53.1134C57.7649 53.1134 57.4854 53.393 57.4854 53.7378C57.4854 54.0826 57.7649 54.3622 58.1097 54.3622Z" fill="#442823"/>
<path id="Vector_35" d="M61.7001 58.1085C62.0449 58.1085 62.3245 57.829 62.3245 57.4841C62.3245 57.1393 62.0449 56.8597 61.7001 56.8597C61.3552 56.8597 61.0757 57.1393 61.0757 57.4841C61.0757 57.829 61.3552 58.1085 61.7001 58.1085Z" fill="#442823"/>
<path id="Vector_36" d="M62.871 54.3622C63.2158 54.3622 63.4954 54.0826 63.4954 53.7378C63.4954 53.393 63.2158 53.1134 62.871 53.1134C62.5261 53.1134 62.2466 53.393 62.2466 53.7378C62.2466 54.0826 62.5261 54.3622 62.871 54.3622Z" fill="#442823"/>
</g>
</g>
</g>
<defs>
<clipPath id="clip0_144_317">
<rect width="100" height="100" fill="white" transform="translate(0.5)"/>
</clipPath>
</defs>
</svg>
