
<svg width="101" height="100" viewBox="0 0 101 100" fill="none" xmlns="http://www.w3.org/2000/svg">
<g id="redux-logo-svgrepo-com 1" clip-path="url(#clip0_143_310)">
<path id="Vector" d="M69.7894 68.6457C73.4797 68.2637 76.2793 65.0824 76.1519 61.2645C76.025 57.4469 72.8433 54.3926 69.0258 54.3926H68.7715C64.8262 54.5199 61.7723 57.8285 61.8996 61.7734C62.0269 63.6824 62.7902 65.3367 63.9355 66.482C59.609 75.0086 52.9918 81.2441 43.066 86.4617C36.3215 90.025 29.3226 91.2977 22.3238 90.407C16.5973 89.6434 12.1434 87.0984 9.34335 82.8984C5.27148 76.6629 4.88984 69.918 8.32578 63.1734C10.7437 58.3375 14.5609 54.7742 16.9789 52.9926C16.4699 51.3383 15.7062 48.5387 15.3246 46.5027C-3.12735 59.8648 -1.21836 77.9356 4.38085 86.4617C8.58007 92.825 17.1062 96.7699 26.523 96.7699C29.068 96.7699 31.6129 96.5152 34.1582 95.8793C50.4469 92.6977 62.7906 83.0258 69.7894 68.6457ZM92.1863 52.8656C82.5148 41.5395 68.2625 35.3039 51.9738 35.3039H49.9379C48.7926 33.0133 46.3746 31.4859 43.7023 31.4859H43.4476C39.5031 31.6133 36.4492 34.9219 36.5762 38.8672C36.7035 42.6848 39.8848 45.7391 43.7023 45.7391H43.9566C46.7562 45.6117 49.1742 43.8301 50.1922 41.4121H52.4828C62.1543 41.4121 71.3164 44.2117 79.5883 49.684C85.9508 53.8836 90.532 59.3559 93.0769 65.9731C95.2402 71.318 95.1129 76.5356 92.8223 80.9899C89.2594 87.7344 83.2785 91.425 75.3887 91.425C70.2984 91.425 65.4629 89.8977 62.9176 88.7523C61.518 90.025 58.9726 92.0609 57.191 93.334C62.6633 95.8789 68.2625 97.2789 73.607 97.2789C85.8234 97.2789 94.8586 90.534 98.2945 83.7895C101.985 76.4082 101.73 63.6824 92.1863 52.8656ZM27.541 70.8086C27.6684 74.6266 30.8496 77.6805 34.6672 77.6805H34.9219C38.8668 77.5535 41.9207 74.2445 41.7934 70.2996C41.6664 66.4816 38.4848 63.4277 34.6672 63.4277H34.4129C34.1582 63.4277 33.7762 63.4277 33.5223 63.5547C28.3047 54.9012 26.1414 45.4844 26.9051 35.3035C27.4137 27.668 29.959 21.0504 34.4129 15.5781C38.1031 10.8695 45.2293 8.57891 50.0652 8.45195C63.5539 8.19727 69.2801 24.9953 69.6621 31.7402C71.3164 32.1219 74.116 33.0129 76.025 33.6492C74.4976 13.0336 61.7723 2.34375 49.5562 2.34375C38.1031 2.34375 27.541 10.6156 23.3414 22.8324C17.4879 39.1215 21.3055 54.7742 28.4316 67.1184C27.7957 68.009 27.4137 69.4086 27.541 70.8086Z" fill="#764ABC"/>
</g>
<defs>
<clipPath id="clip0_143_310">
<rect width="100" height="100" fill="white" transform="translate(0.5)"/>
</clipPath>
</defs>
</svg>

